<?xml version="1.0" standalone="no"?>
<!DOCTYPE svg PUBLIC "-//W3C//DTD SVG 20010904//EN"
 "http://www.w3.org/TR/2001/REC-SVG-20010904/DTD/svg10.dtd">
<svg version="1.0" xmlns="http://www.w3.org/2000/svg"
 width="260.000000pt" height="260.000000pt" viewBox="0 0 260.000000 260.000000"
 preserveAspectRatio="xMidYMid meet">
<metadata>
Created by potrace 1.11, written by Peter Selinger 2001-2013
</metadata>
<g transform="translate(0.000000,260.000000) scale(0.100000,-0.100000)"
fill="#000000" stroke="none">
<path d="M295 2574 c-46 -43 -38 -57 145 -239 120 -120 169 -176 167 -190 -6
-50 -39 -27 -213 145 -160 160 -175 172 -201 166 -15 -4 -34 -14 -40 -23 -31
-40 -17 -60 157 -234 94 -94 170 -176 170 -183 0 -20 -24 -36 -39 -26 -8 4
-90 83 -182 175 -155 154 -171 167 -196 161 -37 -9 -65 -43 -57 -70 8 -29 390
-412 441 -442 50 -30 132 -41 188 -25 45 12 28 26 190 -153 50 -55 97 -107
105 -116 110 -118 195 -214 195 -220 0 -8 -17 -28 -179 -205 -50 -55 -118
-129 -151 -165 -129 -142 -118 -132 -150 -120 -39 15 -102 15 -155 -1 -39 -11
-76 -44 -267 -233 -240 -239 -242 -242 -186 -286 19 -15 30 -17 50 -9 15 5 87
71 162 147 175 176 196 193 214 186 38 -14 21 -38 -148 -208 -96 -96 -175
-182 -175 -190 0 -23 22 -66 34 -67 6 0 20 -2 31 -4 15 -3 65 41 196 171 175
174 197 189 213 147 4 -10 -47 -68 -155 -176 -89 -89 -168 -172 -176 -185 -22
-32 -2 -79 39 -87 27 -6 36 -1 90 51 213 210 365 368 380 399 26 49 33 116 19
171 -12 45 -11 48 12 68 20 18 95 85 223 201 27 25 195 179 230 212 l25 23 23
-23 c24 -24 195 -180 230 -210 30 -26 207 -188 229 -210 14 -14 17 -25 10 -45
-14 -48 -8 -144 14 -185 10 -21 113 -133 228 -248 220 -221 234 -230 275 -187
41 44 38 48 -180 265 -138 138 -161 173 -124 187 12 5 65 -41 193 -168 163
-161 180 -175 207 -170 16 3 35 12 42 21 30 40 16 60 -158 234 -93 94 -170
176 -170 182 0 7 4 18 9 26 14 22 38 2 203 -162 84 -85 163 -159 175 -166 35
-18 82 13 90 59 1 8 -91 108 -205 223 -227 230 -265 257 -359 257 -28 0 -64
-5 -80 -11 -26 -10 -31 -7 -68 34 -22 24 -78 85 -125 136 -47 52 -93 103 -103
115 -10 11 -44 48 -75 81 -31 33 -69 74 -85 92 l-30 32 38 43 c47 53 201 221
276 302 31 34 76 82 100 109 44 47 44 47 84 36 56 -16 138 -5 188 24 23 14
134 118 245 231 179 180 203 208 196 228 -11 35 -41 57 -72 52 -17 -4 -79 -59
-182 -162 -194 -194 -186 -188 -205 -172 -8 7 -15 18 -15 26 0 7 77 90 170
183 174 174 187 194 157 234 -6 9 -25 19 -40 23 -26 6 -41 -7 -207 -171 -176
-174 -180 -178 -200 -160 -14 12 -17 22 -10 34 5 9 81 88 169 175 89 88 163
168 167 178 9 30 -6 59 -39 73 -23 9 -34 10 -43 1 -125 -115 -421 -421 -437
-451 -21 -42 -28 -137 -13 -186 7 -23 2 -32 -34 -65 -23 -22 -54 -50 -69 -64
-15 -14 -72 -66 -126 -116 -91 -84 -129 -117 -233 -211 l-36 -32 -56 52 c-56
54 -154 144 -174 162 -36 32 -233 213 -250 229 -17 17 -18 24 -9 58 14 53 7
130 -15 174 -22 43 -425 450 -452 457 -12 3 -29 -4 -45 -19z"/>
</g>
</svg>
